<svg xmlns="http://www.w3.org/2000/svg" width="44" height="44" viewBox="0 0 44 44" fill="none">
  <path d="M21.1566 15.6868H17.8168C16.4808 15.6868 15.8128 15.6868 15.3025 15.9468C14.8537 16.1755 14.4887 16.5405 14.26 16.9893C14 17.4996 14 18.1676 14 19.5037V26.1832C14 27.5192 14 28.1872 14.26 28.6975C14.4887 29.1463 14.8537 29.5113 15.3025 29.74C15.8128 30 16.4808 30 17.8168 30H24.4963C25.8324 30 26.5004 30 27.0107 29.74C27.4595 29.5113 27.8245 29.1463 28.0532 28.6975C28.3132 28.1872 28.3132 27.5192 28.3132 26.1832V22.8434M18.771 25.2289H20.1026C20.4916 25.2289 20.6861 25.2289 20.8691 25.185C21.0314 25.146 21.1865 25.0818 21.3288 24.9946C21.4893 24.8962 21.6268 24.7587 21.9019 24.4837L29.5059 16.8796C30.1647 16.2208 30.1647 15.1528 29.5059 14.4941C28.8472 13.8353 27.7792 13.8353 27.1204 14.4941L19.5163 22.0981C19.2413 22.3732 19.1037 22.5107 19.0054 22.6712C18.9182 22.8135 18.8539 22.9686 18.815 23.1309C18.771 23.3139 18.771 23.5084 18.771 23.8974V25.2289Z" stroke="#6A6A6A" stroke-width="2" stroke-linecap="round" stroke-linejoin="round"/>
</svg>