<svg width="116" height="40" viewBox="0 0 116 40" fill="none" xmlns="http://www.w3.org/2000/svg">
<path d="M0.5 16C0.5 7.43959 7.43959 0.5 16 0.5H100C108.56 0.5 115.5 7.43959 115.5 16V24C115.5 32.5604 108.56 39.5 100 39.5H16C7.43959 39.5 0.5 32.5604 0.5 24V16Z" stroke="#66BB6A"/>
<path d="M17.0376 12.5376L31.8338 27.3338" stroke="#66BB6A" stroke-width="2.7" stroke-linecap="round"/>
<path d="M17.0376 27.3337L31.8338 12.5375" stroke="#66BB6A" stroke-width="2.53125" stroke-linecap="round"/>
<path d="M40.554 28.142C40.11 28.142 39.864 27.8 39.816 27.116C40.212 27.032 40.536 26.918 40.788 26.774C41.04 26.642 41.238 26.498 41.382 26.342C41.526 26.198 41.628 25.964 41.688 25.64C41.76 25.316 41.802 25.022 41.814 24.758C41.826 24.494 41.832 24.092 41.832 23.552C41.832 23.3 41.826 22.514 41.814 21.194C41.814 19.862 41.814 18.878 41.814 18.242C41.814 16.55 41.772 15.158 41.688 14.066C41.892 14.03 42.138 14.012 42.426 14.012C43.014 14.012 43.308 14.24 43.308 14.696C43.308 14.756 43.296 14.978 43.272 15.362C43.248 15.746 43.224 16.226 43.2 16.802C43.176 17.366 43.164 17.906 43.164 18.422V24.002C43.164 24.662 43.092 25.25 42.948 25.766C42.804 26.282 42.624 26.684 42.408 26.972C42.204 27.26 41.97 27.494 41.706 27.674C41.454 27.866 41.232 27.992 41.04 28.052C40.86 28.112 40.698 28.142 40.554 28.142ZM50.2076 26.126C48.8156 26.126 47.7056 25.694 46.8776 24.83C46.0496 23.966 45.6356 22.808 45.6356 21.356C45.6356 19.892 46.0496 18.728 46.8776 17.864C47.7056 17 48.8156 16.568 50.2076 16.568C51.6116 16.568 52.7276 17 53.5556 17.864C54.3956 18.728 54.8156 19.892 54.8156 21.356C54.8156 22.808 54.3956 23.966 53.5556 24.83C52.7276 25.694 51.6116 26.126 50.2076 26.126ZM53.3756 21.608C53.3756 20.924 53.2796 20.288 53.0876 19.7C52.8956 19.112 52.5476 18.608 52.0436 18.188C51.5516 17.768 50.9456 17.558 50.2256 17.558C49.2536 17.558 48.4796 17.876 47.9036 18.512C47.3396 19.148 47.0576 19.958 47.0576 20.942C47.0576 21.662 47.1536 22.328 47.3456 22.94C47.5376 23.552 47.8796 24.074 48.3716 24.506C48.8636 24.938 49.4756 25.154 50.2076 25.154C51.2156 25.154 51.9956 24.83 52.5476 24.182C53.0996 23.522 53.3756 22.664 53.3756 21.608ZM57.5169 16.766C57.7329 16.694 57.9849 16.658 58.2729 16.658C58.5969 16.658 58.8309 16.712 58.9749 16.82C59.1309 16.928 59.2089 17.114 59.2089 17.378C59.2089 17.774 59.1669 18.644 59.0829 19.988C59.0109 21.332 58.9749 22.382 58.9749 23.138C58.9749 23.774 59.1609 24.254 59.5329 24.578C59.9049 24.902 60.3429 25.064 60.8469 25.064C61.3029 25.064 61.7829 24.956 62.2869 24.74C62.7909 24.524 63.1989 24.272 63.5109 23.984C63.5109 23.924 63.5109 23.774 63.5109 23.534C63.5229 23.282 63.5289 22.856 63.5289 22.256C63.5289 21.656 63.5289 20.888 63.5289 19.952C63.5289 18.704 63.4929 17.624 63.4209 16.712C63.6129 16.676 63.8469 16.658 64.1229 16.658C64.6749 16.658 64.9509 16.838 64.9509 17.198C64.9509 17.21 64.9389 17.384 64.9149 17.72C64.9029 18.044 64.8849 18.554 64.8609 19.25C64.8369 19.946 64.8249 20.75 64.8249 21.662C64.8249 23.114 64.8369 24.086 64.8609 24.578C64.8969 25.07 64.9809 25.526 65.1129 25.946C64.9089 26.006 64.6449 26.036 64.3209 26.036C64.0089 26.036 63.7929 25.982 63.6729 25.874C63.5529 25.754 63.4929 25.538 63.4929 25.226V25.01C63.0969 25.334 62.6289 25.604 62.0889 25.82C61.5489 26.024 61.0509 26.126 60.5949 26.126C59.6829 26.126 58.9569 25.922 58.4169 25.514C57.8889 25.106 57.6249 24.374 57.6249 23.318C57.6249 22.766 57.6429 22.022 57.6789 21.086C57.7269 20.138 57.7509 19.436 57.7509 18.98C57.7509 18.068 57.6729 17.33 57.5169 16.766ZM73.7117 24.74C73.9757 25.004 74.2637 25.136 74.5757 25.136C74.6357 25.136 74.7617 25.124 74.9537 25.1C75.0377 25.268 75.0797 25.424 75.0797 25.568C75.0797 25.94 74.6897 26.126 73.9097 26.126C73.5617 26.126 73.2257 26 72.9017 25.748C72.5777 25.484 72.2657 25.112 71.9657 24.632C71.6657 24.14 71.4317 23.732 71.2637 23.408C71.1077 23.072 70.9157 22.646 70.6877 22.13C70.4597 22.082 70.3457 21.962 70.3457 21.77C70.3457 21.65 70.3877 21.47 70.4717 21.23C70.7357 21.29 70.9637 21.32 71.1557 21.32C71.7077 21.32 72.1577 21.152 72.5057 20.816C72.8537 20.468 73.0277 20 73.0277 19.412C73.0277 18.716 72.8357 18.23 72.4517 17.954C72.0677 17.678 71.4797 17.54 70.6877 17.54C70.6157 17.54 70.2557 17.558 69.6077 17.594C69.6557 18.146 69.6797 19.088 69.6797 20.42V23.192C69.6797 24.44 69.7697 25.358 69.9497 25.946C69.7457 26.006 69.4817 26.036 69.1577 26.036C68.8337 26.036 68.6117 25.976 68.4917 25.856C68.3837 25.736 68.3297 25.532 68.3297 25.244C68.3297 25.1 68.3357 24.734 68.3477 24.146C68.3597 23.558 68.3657 23.096 68.3657 22.76V19.952C68.3657 18.632 68.2997 17.558 68.1677 16.73C68.8157 16.622 69.5717 16.568 70.4357 16.568C73.1237 16.568 74.4677 17.51 74.4677 19.394C74.4677 20.138 74.2517 20.744 73.8197 21.212C73.3997 21.68 72.8357 21.992 72.1277 22.148C72.8597 23.552 73.3877 24.416 73.7117 24.74ZM84.6507 26C84.4107 26.024 84.2247 26.036 84.0927 26.036C83.6847 26.036 83.3967 25.916 83.2287 25.676C82.8687 25.124 82.1907 24.02 81.1947 22.364C80.1987 20.708 79.3827 19.418 78.7467 18.494C78.7707 19.394 78.7827 20.81 78.7827 22.742C78.7827 24.326 78.8787 25.394 79.0707 25.946C78.8547 26.006 78.6447 26.036 78.4407 26.036C78.1167 26.036 77.9007 25.976 77.7927 25.856C77.6847 25.736 77.6307 25.532 77.6307 25.244C77.6307 25.1 77.6307 24.734 77.6307 24.146C77.6427 23.558 77.6487 23.096 77.6487 22.76V19.952C77.6487 18.392 77.5587 17.324 77.3787 16.748C77.5947 16.676 77.8527 16.64 78.1527 16.64C78.5247 16.64 78.8367 16.778 79.0887 17.054C79.5567 17.534 80.2407 18.482 81.1407 19.898C82.0407 21.314 82.8327 22.652 83.5167 23.912C83.4567 23.048 83.4267 21.758 83.4267 20.042C83.4267 18.746 83.3907 17.63 83.3187 16.694C83.5107 16.67 83.6847 16.658 83.8407 16.658C84.3927 16.658 84.6687 16.838 84.6687 17.198C84.6687 17.246 84.6567 17.432 84.6327 17.756C84.6207 18.08 84.6027 18.482 84.5787 18.962C84.5667 19.442 84.5607 19.898 84.5607 20.33V22.742C84.5607 24.146 84.5907 25.232 84.6507 26ZM92.1883 22.202C91.9603 21.662 91.4743 20.384 90.7303 18.368C90.1303 20.096 89.6563 21.368 89.3083 22.184C90.0283 22.208 90.5803 22.22 90.9643 22.22C91.5283 22.22 91.9363 22.214 92.1883 22.202ZM90.6763 23.174C90.4243 23.174 89.8423 23.162 88.9303 23.138C88.8703 23.282 88.7383 23.6 88.5343 24.092C88.3423 24.584 88.1863 24.998 88.0663 25.334C87.9463 25.658 87.8443 25.976 87.7603 26.288C87.0523 26.192 86.6983 26.006 86.6983 25.73C86.6983 25.61 86.7523 25.412 86.8603 25.136C86.9803 24.86 87.1783 24.404 87.4543 23.768C87.7423 23.12 88.0123 22.472 88.2643 21.824C89.2003 19.412 89.8123 17.72 90.1003 16.748C90.2923 16.712 90.5143 16.694 90.7663 16.694C91.0303 16.694 91.2163 16.736 91.3243 16.82C91.4323 16.892 91.5523 17.102 91.6843 17.45C91.7803 17.702 92.0383 18.404 92.4583 19.556C92.8903 20.696 93.2263 21.572 93.4663 22.184C94.0423 23.6 94.6063 24.83 95.1583 25.874C94.8223 26.042 94.5523 26.126 94.3483 26.126C93.9883 26.126 93.7423 26.006 93.6103 25.766C93.5383 25.598 93.1843 24.722 92.5483 23.138C91.5163 23.162 90.8923 23.174 90.6763 23.174ZM96.858 22.868V19.952C96.858 18.704 96.822 17.618 96.75 16.694C96.942 16.67 97.176 16.658 97.452 16.658C98.004 16.658 98.28 16.838 98.28 17.198C98.28 17.246 98.268 17.432 98.244 17.756C98.232 18.08 98.214 18.482 98.19 18.962C98.166 19.442 98.154 19.898 98.154 20.33V21.572C98.154 23.468 98.19 24.614 98.262 25.01C98.67 25.034 98.988 25.046 99.216 25.046C100.716 25.046 101.688 24.938 102.132 24.722C102.204 24.95 102.24 25.178 102.24 25.406C102.24 25.598 102.198 25.736 102.114 25.82C101.934 25.952 101.16 26.018 99.792 26.018C99.528 26.018 99.09 26.012 98.478 26C97.878 26 97.56 26 97.524 26C97.248 25.988 97.062 25.922 96.966 25.802C96.87 25.682 96.822 25.484 96.822 25.208C96.822 25.064 96.828 24.722 96.84 24.182C96.852 23.642 96.858 23.204 96.858 22.868Z" fill="#6A6A6A"/>
</svg>
