<svg width="44" height="44" viewBox="0 0 44 44" fill="none" xmlns="http://www.w3.org/2000/svg">
<g id="Icons/20px">
<path id="Icon" d="M25.8333 17.2V16.56C25.8333 15.6639 25.8333 15.2159 25.6517 14.8736C25.4919 14.5726 25.2369 14.3278 24.9233 14.1744C24.5668 14 24.1001 14 23.1667 14H21.8333C20.8999 14 20.4332 14 20.0767 14.1744C19.7631 14.3278 19.5081 14.5726 19.3483 14.8736C19.1667 15.2159 19.1667 15.6639 19.1667 16.56V17.2M15 17.2H30M28.3333 17.2V26.16C28.3333 27.5041 28.3333 28.1762 28.0608 28.6896C27.8212 29.1412 27.4387 29.5083 26.9683 29.7384C26.4335 30 25.7335 30 24.3333 30H20.6667C19.2665 30 18.5665 30 18.0317 29.7384C17.5613 29.5083 17.1788 29.1412 16.9392 28.6896C16.6667 28.1762 16.6667 27.5041 16.6667 26.16V17.2" stroke="#E43317" stroke-width="2" stroke-linecap="round" stroke-linejoin="round"/>
</g>
</svg>
